<?xml version="1.0" standalone="no"?>
<!DOCTYPE svg PUBLIC "-//W3C//DTD SVG 20010904//EN"
 "http://www.w3.org/TR/2001/REC-SVG-20010904/DTD/svg10.dtd">
<svg version="1.0" xmlns="http://www.w3.org/2000/svg"
 width="310.000000pt" height="310.000000pt" viewBox="0 0 310.000000 310.000000"
 preserveAspectRatio="xMidYMid meet">
<metadata>
Created by potrace 1.14, written by Peter Selinger 2001-2017
</metadata>
<g transform="translate(0.000000,310.000000) scale(0.100000,-0.100000)"
fill="#000000" stroke="none">
<path d="M1360 3082 c0 -7 -4 -11 -9 -8 -5 3 -11 0 -14 -8 -4 -9 -20 -13 -49
-12 -26 1 -49 -3 -57 -12 -9 -9 -25 -12 -43 -8 -16 3 -28 1 -28 -5 0 -6 -4 -7
-10 -4 -5 3 -10 1 -10 -4 0 -6 -13 -11 -29 -11 -16 0 -31 -4 -33 -9 -1 -6 -14
-11 -28 -13 -14 -2 -35 -9 -47 -16 -13 -7 -23 -10 -23 -7 0 4 -7 -1 -16 -9 -8
-9 -19 -14 -24 -11 -4 3 -11 -2 -14 -11 -3 -8 -11 -14 -18 -13 -26 3 -39 -1
-33 -11 6 -10 -7 -14 -31 -11 -7 1 -15 -6 -18 -15 -4 -9 -13 -14 -21 -10 -8 3
-15 1 -15 -5 0 -10 -48 -34 -63 -31 -4 1 -6 -3 -5 -10 2 -6 -6 -14 -17 -16
-11 -2 -30 -15 -43 -29 -12 -13 -41 -35 -65 -48 -23 -14 -42 -28 -41 -32 1
-12 -23 -33 -30 -26 -3 4 -6 2 -6 -3 0 -15 -66 -84 -74 -77 -3 3 -6 2 -6 -3 0
-15 -46 -64 -54 -57 -3 3 -6 -1 -6 -9 0 -9 -7 -18 -15 -22 -8 -3 -15 -12 -15
-19 0 -8 -15 -31 -34 -51 -19 -20 -38 -45 -41 -56 -3 -11 -15 -25 -26 -31 -12
-6 -18 -17 -15 -24 3 -8 1 -17 -5 -20 -8 -6 -40 -72 -40 -85 0 -3 -7 -8 -14
-13 -8 -4 -12 -13 -9 -21 3 -7 -2 -19 -11 -26 -8 -7 -15 -17 -15 -23 0 -6 -8
-19 -18 -30 -9 -11 -11 -17 -5 -13 18 10 16 3 -6 -23 -11 -13 -17 -29 -14 -38
3 -8 1 -18 -5 -22 -6 -3 -12 -18 -14 -33 -2 -14 -9 -32 -15 -39 -6 -8 -10 -27
-9 -44 2 -16 -2 -33 -8 -37 -10 -6 -13 -28 -15 -90 -1 -16 -7 -28 -13 -28 -19
0 -17 -362 2 -385 8 -9 13 -34 11 -56 -1 -24 4 -45 13 -54 8 -9 13 -29 12 -49
-2 -21 2 -37 10 -40 7 -3 11 -13 9 -23 -1 -10 4 -26 12 -35 8 -9 12 -22 8 -27
-3 -6 -1 -11 6 -11 9 0 9 -3 0 -14 -9 -11 -8 -15 4 -20 9 -3 13 -10 10 -16 -3
-5 -1 -10 5 -10 6 0 8 -5 5 -10 -3 -6 1 -10 9 -10 9 0 13 -6 10 -14 -3 -7 2
-21 11 -30 9 -9 14 -20 11 -25 -8 -12 19 -33 30 -23 4 4 3 -1 -5 -10 -11 -14
-9 -20 8 -34 15 -13 17 -20 8 -26 -8 -5 -7 -8 6 -8 10 0 17 -8 17 -20 0 -10
11 -30 24 -43 14 -14 22 -28 19 -31 -4 -3 -1 -6 5 -6 7 0 11 -3 10 -7 -2 -5
12 -23 29 -42 18 -18 30 -38 27 -42 -3 -5 2 -12 10 -15 9 -3 16 -13 16 -21 0
-8 3 -13 7 -11 10 4 102 -90 95 -97 -3 -3 0 -5 6 -5 7 0 31 -19 54 -42 22 -22
35 -38 27 -34 -8 4 -5 0 6 -9 11 -9 19 -21 17 -26 -1 -6 2 -8 8 -4 5 3 13 -2
16 -12 18 -55 28 -73 40 -73 8 0 14 -5 14 -11 0 -6 5 -9 12 -7 6 2 25 -10 41
-26 16 -17 26 -25 22 -18 -3 6 -1 12 4 12 6 0 11 -8 11 -17 0 -15 2 -16 10 -3
7 11 10 11 10 2 0 -7 13 -18 30 -23 16 -6 30 -16 30 -21 0 -6 9 -8 20 -5 11 3
18 0 17 -7 -1 -6 6 -10 16 -10 9 1 17 -5 17 -13 0 -13 2 -13 17 -2 14 12 16
12 8 0 -6 -11 -4 -13 8 -8 10 3 17 3 17 -2 0 -10 39 -24 59 -21 7 1 10 -3 6
-9 -4 -7 5 -11 24 -11 17 0 31 -4 31 -8 0 -9 8 -11 55 -14 14 -1 25 -5 25 -9
0 -4 7 -10 16 -13 10 -4 13 -2 8 7 -5 8 -2 7 9 -2 9 -7 17 -10 17 -7 0 4 8 2
18 -3 13 -7 23 -6 30 1 7 7 12 8 12 4 0 -5 7 -3 15 4 9 7 25 13 38 14 22 1 48
-14 41 -25 -2 -3 7 -4 19 -3 12 1 22 3 22 4 0 1 12 3 28 4 15 1 27 -1 27 -4 0
-9 32 -6 48 4 7 4 12 2 12 -6 0 -9 3 -9 10 2 5 8 10 10 10 4 0 -12 29 -12 48
0 7 4 12 2 12 -4 0 -8 6 -7 21 1 16 8 20 8 14 -1 -5 -9 -2 -10 11 -3 11 5 40
8 67 7 28 0 47 4 47 10 0 14 49 17 74 4 14 -8 17 -7 11 3 -6 9 -4 11 8 6 8 -3
18 0 20 8 4 8 19 12 42 10 23 -1 39 3 42 11 3 8 9 11 14 8 5 -3 9 0 9 7 0 10
3 10 11 2 15 -15 39 -5 40 16 0 10 2 11 6 4 3 -9 10 -10 24 -3 10 6 19 8 19 4
0 -4 8 0 18 9 10 10 22 14 25 11 4 -4 9 0 13 9 3 9 14 14 25 12 12 -2 19 2 19
11 0 8 3 13 8 13 21 -4 42 2 38 10 -4 5 5 8 19 7 13 -2 22 1 19 5 -6 11 37 29
50 21 5 -3 7 2 3 11 -4 11 -1 15 13 12 10 -2 28 7 41 21 12 13 27 24 33 24 16
1 56 36 56 49 0 9 25 16 33 9 6 -7 267 263 267 277 0 8 5 15 10 15 6 0 10 7
10 15 0 8 5 15 11 15 19 0 39 28 32 47 -3 10 -3 15 2 11 9 -9 55 49 55 69 0 7
5 13 11 13 5 0 8 4 4 9 -3 5 1 15 8 23 7 7 14 16 15 21 4 15 46 103 56 116 6
7 11 21 11 30 0 9 5 15 12 14 7 -2 12 7 11 20 -2 41 2 58 11 53 5 -3 11 1 15
9 3 8 1 17 -4 20 -5 3 1 22 13 42 11 20 15 33 8 29 -10 -7 -11 -4 -2 13 7 11
9 21 5 21 -3 0 -1 7 6 15 7 9 14 37 15 62 1 26 7 49 13 51 9 3 12 56 12 187 0
149 -3 186 -15 198 -9 10 -13 29 -11 56 3 33 -1 44 -16 52 -10 6 -15 15 -11
21 9 16 11 58 2 58 -10 0 -29 57 -21 65 4 3 0 10 -8 15 -8 5 -15 22 -15 37 0
19 -5 27 -14 25 -9 -2 -12 4 -8 18 3 13 0 23 -8 26 -7 3 -12 14 -10 25 2 11 0
17 -6 14 -5 -4 -12 7 -15 24 -4 17 -13 31 -20 31 -8 0 -11 6 -8 15 3 8 -1 22
-10 31 -9 8 -14 20 -11 25 4 5 2 9 -4 9 -9 0 -18 19 -22 45 -1 6 -10 16 -20
23 -11 7 -19 19 -19 27 0 8 -8 19 -17 24 -10 6 -14 11 -9 11 5 0 -4 10 -18 21
-18 14 -26 28 -23 40 3 10 2 17 -2 16 -4 -1 -23 15 -44 36 -21 20 -42 37 -47
37 -6 0 -9 3 -8 8 4 10 -81 92 -94 92 -6 0 -9 3 -5 6 8 8 -25 44 -35 38 -4 -3
-8 2 -8 10 0 14 -12 20 -32 17 -5 0 -8 4 -8 10 0 5 -4 8 -8 5 -5 -3 -15 6 -23
20 -7 14 -25 28 -41 31 -15 3 -28 12 -28 19 0 7 -15 17 -32 22 -21 6 -32 14
-30 23 2 8 0 11 -4 7 -4 -4 -13 -3 -21 3 -7 6 -13 9 -13 5 0 -3 -18 5 -39 18
-21 14 -42 22 -46 18 -3 -4 -11 1 -16 10 -5 10 -16 15 -24 12 -9 -4 -15 0 -15
8 0 7 -10 15 -22 15 -13 1 -24 7 -26 13 -2 5 -19 10 -38 10 -20 0 -33 4 -29 9
3 6 -12 11 -32 13 -21 2 -37 8 -36 14 1 7 -14 10 -43 8 -27 -2 -42 1 -39 6 7
11 2 12 -60 14 -22 1 -50 7 -61 14 -12 6 -24 8 -28 5 -3 -3 -6 -1 -6 7 0 8 -4
9 -12 3 -15 -11 -48 -13 -48 -3 0 4 -7 7 -15 7 -8 0 -12 -4 -9 -8 2 -4 -5 -7
-16 -6 -11 1 -20 5 -20 10 0 5 -6 5 -12 0 -15 -11 -48 -13 -48 -3 0 4 -7 7
-15 7 -8 0 -12 -4 -9 -9 3 -4 1 -8 -5 -8 -5 0 -13 5 -16 10 -4 6 -11 8 -16 4
-18 -10 -59 -12 -59 -1 0 5 -7 4 -16 -4 -13 -10 -17 -10 -25 2 -6 10 -9 11 -9
1z m226 -177 c13 -1 24 2 24 6 0 5 5 9 10 9 6 0 9 -6 8 -12 -2 -9 10 -13 34
-13 20 0 40 -3 44 -7 4 -4 13 -3 20 3 8 7 14 7 19 -1 3 -6 11 -8 16 -5 5 4 9
1 9 -6 0 -7 7 -4 16 7 8 10 13 14 10 7 -4 -7 6 -14 26 -18 18 -4 39 -12 47
-19 10 -7 13 -7 8 0 -3 6 0 11 8 11 8 0 12 -4 10 -8 -8 -12 43 -17 55 -5 8 8
9 6 4 -8 -6 -15 -4 -17 14 -11 14 4 22 2 22 -5 0 -8 10 -10 24 -8 19 4 23 1
18 -11 -5 -14 -3 -14 10 -3 13 10 18 10 24 1 5 -8 3 -9 -6 -4 -9 5 -11 4 -6
-4 4 -7 13 -10 19 -8 7 2 18 -2 25 -10 7 -7 22 -13 33 -13 11 0 18 -3 16 -7
-3 -5 6 -9 20 -9 13 -1 31 -10 38 -20 8 -11 15 -15 15 -10 0 6 7 1 16 -10 8
-10 12 -13 9 -6 -6 11 -3 12 14 3 11 -7 21 -14 21 -17 0 -3 -6 -2 -12 1 -7 4
-2 -3 12 -14 14 -11 30 -21 37 -21 7 0 24 -12 39 -27 15 -16 22 -19 14 -8 -7
11 3 3 23 -19 19 -21 40 -35 46 -32 6 4 11 3 11 -3 0 -5 -6 -12 -12 -14 -7 -3
-3 -6 10 -6 12 -1 22 -6 22 -12 0 -5 5 -7 12 -3 8 5 9 0 5 -16 -4 -17 -3 -20
6 -11 6 6 16 11 22 11 5 0 4 -4 -4 -9 -11 -7 -7 -16 21 -45 19 -20 41 -36 49
-36 12 0 12 -2 0 -9 -11 -7 -9 -10 8 -16 11 -3 21 -13 21 -21 0 -9 5 -12 12
-8 7 4 8 3 4 -4 -4 -7 -2 -20 3 -29 6 -10 11 -14 11 -10 0 12 30 -20 30 -32 0
-6 6 -11 13 -11 8 0 7 -4 -3 -10 -13 -8 -12 -10 4 -10 11 0 16 -3 13 -7 -4 -3
1 -12 11 -20 9 -8 11 -12 5 -8 -9 4 -11 1 -7 -9 3 -9 10 -13 15 -10 5 3 9 -4
9 -16 0 -14 4 -19 12 -14 7 5 9 2 5 -8 -3 -9 0 -21 6 -27 6 -6 7 -11 2 -11 -5
0 0 -7 12 -15 13 -9 20 -23 18 -35 -2 -11 0 -20 6 -20 5 0 9 -9 9 -20 0 -11 4
-20 10 -20 5 0 7 -7 3 -15 -3 -9 2 -22 12 -29 13 -9 15 -15 6 -20 -8 -5 -7
-11 3 -22 8 -8 13 -23 11 -34 -2 -11 0 -20 6 -20 5 0 9 -5 9 -11 0 -5 -6 -7
-12 -3 -9 6 -9 3 0 -9 8 -9 11 -21 7 -27 -3 -5 -1 -10 5 -10 6 0 9 -4 5 -9 -3
-5 0 -13 6 -17 8 -5 8 -9 -1 -14 -9 -6 -9 -13 -1 -29 9 -16 9 -21 -1 -21 -6 0
-4 -6 7 -13 13 -10 15 -16 6 -21 -9 -6 -9 -11 0 -22 6 -8 8 -14 5 -14 -4 0 -2
-9 4 -20 8 -15 8 -20 -2 -20 -9 0 -9 -3 -1 -11 8 -8 8 -20 3 -35 -6 -14 -6
-26 0 -29 6 -3 6 -15 0 -29 -5 -15 -5 -27 3 -35 8 -8 8 -11 0 -11 -6 0 -10 -8
-9 -17 2 -10 -2 -21 -8 -25 -7 -5 -7 -8 3 -8 11 0 11 -3 0 -17 -12 -15 -12
-16 1 -8 9 5 7 -1 -5 -15 -11 -13 -14 -20 -6 -15 11 6 13 4 8 -10 -4 -9 -2
-24 4 -31 10 -12 8 -13 -7 -7 -17 6 -18 5 -4 -12 8 -10 10 -16 4 -12 -16 9
-25 -28 -10 -44 8 -9 8 -10 -1 -5 -12 6 -18 -11 -14 -36 0 -5 -3 -8 -9 -8 -5
0 -7 -7 -4 -15 4 -9 1 -15 -7 -15 -10 0 -10 -3 -1 -12 9 -9 7 -15 -6 -25 -9
-8 -11 -11 -3 -7 11 5 10 1 -2 -17 -19 -26 -23 -54 -7 -44 16 10 11 -1 -7 -16
-14 -12 -16 -12 -8 0 5 10 4 12 -4 7 -9 -6 -9 -11 0 -22 7 -9 8 -14 3 -13 -21
4 -28 -2 -14 -11 13 -8 12 -10 -3 -10 -10 0 -16 -4 -12 -10 3 -5 -3 -18 -15
-30 -11 -11 -16 -20 -10 -20 18 0 11 -22 -9 -27 -15 -4 -18 -12 -15 -31 3 -21
2 -23 -6 -12 -5 8 -10 12 -11 8 -1 -5 -3 -12 -4 -18 -1 -5 -3 -17 -4 -26 -1
-10 -7 -14 -16 -10 -13 4 -14 2 -5 -14 9 -16 8 -18 -5 -14 -8 4 -16 1 -16 -5
-3 -22 -5 -27 -22 -51 -9 -13 -17 -20 -17 -14 0 5 3 14 8 20 4 5 -1 1 -11 -10
-10 -11 -15 -26 -12 -35 3 -8 3 -12 -1 -8 -11 10 -55 -43 -47 -56 4 -7 -2 -5
-12 3 -15 12 -17 12 -10 1 5 -9 2 -18 -9 -27 -10 -7 -18 -16 -19 -21 -1 -4 -5
-7 -9 -5 -5 1 -8 -3 -8 -9 0 -8 -4 -8 -15 1 -12 10 -14 8 -10 -9 2 -14 -1 -21
-11 -21 -8 0 -14 -4 -14 -10 0 -5 -7 -10 -16 -10 -8 0 -12 -5 -9 -10 3 -6 1
-10 -5 -10 -6 0 -8 -5 -4 -13 5 -7 0 -6 -11 3 -10 8 -16 10 -12 3 8 -13 -31
-45 -45 -37 -4 3 -5 -3 -1 -12 4 -12 3 -15 -5 -10 -7 4 -12 2 -12 -3 0 -6 -9
-11 -20 -11 -11 0 -19 -3 -19 -7 3 -20 -2 -26 -11 -13 -7 11 -10 11 -10 2 0
-7 -4 -10 -10 -7 -9 5 -14 -6 -12 -26 1 -3 -5 -6 -13 -6 -8 0 -12 5 -9 11 3 6
-1 3 -9 -6 -8 -10 -17 -15 -20 -11 -4 3 -7 1 -7 -6 0 -7 -4 -9 -10 -6 -5 3
-10 1 -10 -5 0 -6 -4 -8 -10 -5 -5 3 -10 1 -10 -5 0 -6 -4 -8 -10 -5 -5 3 -10
1 -10 -5 0 -7 -5 -10 -12 -8 -6 2 -20 -4 -30 -14 -10 -10 -24 -15 -34 -11 -13
5 -15 3 -9 -8 8 -12 6 -12 -8 0 -12 9 -17 10 -17 2 0 -7 -4 -9 -10 -6 -5 3
-10 -2 -10 -12 0 -15 -2 -16 -10 -3 -9 13 -10 13 -10 0 0 -13 -1 -13 -10 0 -7
11 -10 11 -10 2 0 -7 -4 -10 -10 -7 -5 3 -10 2 -10 -3 0 -5 -13 -8 -30 -7 -17
1 -27 -2 -23 -8 4 -6 0 -8 -10 -4 -10 3 -17 2 -17 -4 0 -6 -5 -7 -10 -4 -6 4
-16 2 -23 -3 -14 -11 -46 -10 -66 3 -10 5 -12 4 -7 -3 8 -14 9 -13 -61 -15
-31 0 -49 -5 -46 -11 4 -5 -1 -7 -10 -3 -10 4 -17 1 -17 -5 0 -7 -7 -3 -15 8
-8 10 -15 14 -15 8 0 -6 -7 -11 -15 -11 -8 0 -15 5 -15 11 0 6 -5 4 -10 -4 -7
-12 -12 -12 -21 -3 -10 10 -17 9 -31 -4 -16 -14 -18 -14 -13 -1 5 11 -1 15
-22 14 -15 -1 -34 3 -40 8 -8 5 -13 4 -13 -3 0 -8 -5 -9 -19 -2 -10 6 -21 7
-25 3 -4 -3 -11 0 -16 8 -9 13 -10 13 -10 0 0 -13 -1 -13 -10 0 -6 10 -10 11
-10 3 0 -7 -5 -13 -12 -13 -6 0 -8 3 -5 7 4 3 2 12 -4 20 -9 9 -8 13 0 13 8 0
9 5 1 19 -7 14 -7 22 0 26 8 5 7 11 -1 21 -9 11 -9 14 0 14 8 0 9 5 1 19 -7
14 -7 22 0 26 8 5 7 11 -1 21 -9 11 -9 14 0 14 8 0 9 5 1 19 -7 14 -7 22 0 26
8 5 7 11 -1 21 -6 8 -7 14 -3 14 10 0 10 62 1 77 -3 5 -2 15 3 23 5 8 5 21 0
30 -5 9 -5 22 0 30 5 9 5 19 -2 27 -6 8 -7 13 -1 13 10 0 10 41 0 57 -3 5 -2
15 3 23 5 9 5 19 -2 27 -6 8 -7 13 -1 13 10 0 10 41 0 57 -3 5 -2 15 3 23 5 9
5 19 -2 27 -6 8 -7 13 -1 13 10 0 10 41 0 57 -3 5 -2 15 3 23 5 9 5 19 -2 27
-6 8 -7 13 -1 13 10 0 10 41 0 57 -3 5 -2 15 3 23 5 9 5 19 -2 27 -6 8 -7 13
-1 13 10 0 10 41 0 57 -3 5 -2 15 3 23 5 9 5 19 -2 27 -6 8 -7 13 -1 13 10 0
10 41 0 57 -3 5 -2 15 3 23 5 9 5 19 -2 27 -6 8 -7 13 -1 13 10 0 9 47 -1 57
-3 3 -1 14 4 24 7 12 7 20 0 24 -8 5 -7 11 1 21 6 8 8 14 4 14 -4 0 -1 8 6 17
12 14 12 16 0 8 -11 -6 -12 -5 -5 6 4 8 9 21 11 29 1 8 7 16 13 18 5 2 8 7 5
12 -3 5 10 23 27 41 18 18 26 29 18 25 -8 -4 -6 0 4 8 11 9 24 16 29 16 4 0 5
5 2 10 -3 6 3 10 14 10 12 0 21 5 21 11 0 6 7 9 15 5 8 -3 15 -1 15 4 0 5 7 6
17 3 9 -4 14 -2 10 3 -7 12 116 15 124 3 3 -5 17 -10 32 -11 15 -1 27 -6 27
-10 0 -4 7 -8 16 -8 8 0 13 -4 10 -9 -6 -9 30 -25 48 -22 5 1 4 -4 -3 -13 -10
-12 -8 -16 8 -21 20 -6 25 -16 22 -43 -1 -7 4 -11 11 -10 6 2 12 -1 13 -7 0
-5 4 -16 8 -22 5 -8 3 -13 -5 -13 -10 0 -10 -2 -1 -8 16 -10 23 -83 11 -99 -7
-9 -6 -13 3 -13 11 0 11 -2 -1 -10 -8 -5 -11 -10 -6 -10 5 0 2 -8 -5 -17 -12
-15 -12 -16 1 -8 11 6 10 3 -3 -12 -9 -11 -14 -23 -10 -26 3 -4 1 -7 -6 -7 -7
0 -9 -5 -6 -10 3 -6 -1 -13 -9 -16 -9 -3 -16 -12 -16 -20 0 -8 -7 -14 -16 -14
-8 0 -12 -4 -9 -10 6 -9 -8 -14 -27 -11 -5 0 -7 -5 -5 -12 1 -6 -4 -11 -10 -9
-7 1 -13 -3 -13 -9 0 -5 -4 -7 -10 -4 -5 3 -10 2 -10 -3 0 -5 -9 -12 -20 -15
-11 -3 -18 -2 -15 2 2 4 -2 8 -10 8 -8 0 -12 -4 -10 -8 7 -11 -20 -18 -36 -9
-8 5 -19 4 -26 -2 -10 -8 -13 -7 -13 3 0 8 -6 6 -16 -7 -8 -10 -13 -14 -10 -7
4 6 2 14 -3 17 -11 7 -9 -13 3 -33 6 -10 5 -12 -2 -7 -7 4 -12 1 -12 -9 0 -9
4 -14 8 -11 4 2 8 -4 8 -15 0 -10 -3 -19 -7 -19 -3 0 -3 -18 1 -41 7 -35 5
-39 -9 -35 -11 4 -10 2 3 -9 14 -11 16 -15 5 -15 -12 0 -12 -2 1 -10 10 -6 11
-10 3 -10 -7 0 -13 -5 -13 -11 0 -5 6 -7 13 -3 10 6 10 4 0 -7 -14 -14 -18
-33 -5 -25 8 5 7 -16 -1 -76 -2 -15 0 -25 4 -22 5 3 9 0 9 -5 0 -6 -4 -11 -9
-11 -5 0 -5 -15 -1 -35 5 -20 4 -33 -1 -29 -5 3 -9 -2 -9 -11 0 -9 4 -14 8
-11 4 2 8 -4 8 -15 0 -10 -3 -19 -7 -19 -3 0 -3 -20 1 -45 4 -24 3 -42 -1 -40
-4 3 -9 -1 -12 -7 -5 -16 3 -39 12 -34 7 5 5 -59 -3 -79 -2 -7 5 -11 17 -10
12 1 27 -2 34 -7 7 -5 14 -5 17 1 4 5 18 7 33 5 15 -3 30 0 34 8 7 10 9 10 9
-1 0 -11 3 -11 15 -1 8 7 15 8 15 3 0 -5 9 -9 19 -9 11 0 17 5 14 10 -4 5 3 7
15 4 12 -4 22 -3 22 2 0 4 10 7 23 6 12 -1 36 6 52 15 17 8 35 14 42 12 6 -2
23 3 36 11 13 9 27 13 30 9 4 -3 7 -1 7 6 0 7 5 9 10 6 6 -3 10 -1 10 5 0 6 4
9 9 6 5 -3 14 1 21 9 7 8 16 12 21 9 5 -3 9 0 9 6 0 6 5 8 10 5 6 -3 13 1 16
9 3 9 10 13 15 10 5 -3 9 0 9 6 0 6 4 9 9 6 5 -3 11 1 15 9 3 8 12 15 20 15 8
0 18 10 21 21 6 17 9 19 16 8 7 -11 9 -10 9 5 0 11 3 17 6 13 8 -7 34 17 34
32 0 6 3 10 8 9 14 -5 64 51 56 63 -5 8 -3 9 5 5 14 -9 53 22 46 35 -3 4 6 19
19 32 14 14 22 28 19 31 -4 3 -1 6 6 6 7 0 9 5 6 10 -3 6 -2 10 4 10 6 0 13
11 17 25 3 14 11 22 17 18 6 -4 8 2 5 15 -4 13 0 23 9 26 8 3 11 10 8 16 -3 5
-1 10 4 10 6 0 11 3 10 8 -1 4 2 18 7 32 4 14 6 27 5 29 -2 2 1 7 6 10 14 10
34 51 25 51 -5 0 -9 7 -9 15 0 8 4 12 9 9 4 -3 8 3 8 13 0 11 6 25 13 32 10
11 9 12 -3 6 -12 -7 -13 -6 -4 6 5 8 9 24 8 37 0 12 2 22 6 22 5 0 6 9 3 20
-3 11 1 28 8 37 10 12 10 14 2 9 -7 -4 -13 -3 -13 3 0 5 5 13 10 16 8 5 8 11
0 20 -8 10 -7 15 2 19 10 5 10 7 1 12 -7 3 -13 10 -13 15 0 6 4 8 8 5 4 -2 8
4 8 14 0 10 -4 16 -8 14 -11 -7 -10 4 3 28 6 11 7 18 2 15 -6 -4 -11 6 -11 21
-2 33 -9 69 -17 81 -3 5 0 13 5 16 8 5 6 13 -6 26 -13 15 -14 19 -3 19 12 0
12 2 0 9 -8 5 -16 24 -18 42 -2 18 -8 36 -14 40 -6 3 -10 9 -10 13 3 23 0 36
-8 32 -5 -4 -8 2 -6 11 1 10 -7 28 -18 41 -15 16 -17 22 -6 22 10 1 9 4 -4 11
-9 6 -15 14 -12 20 4 5 -2 9 -12 9 -14 0 -15 2 -5 9 11 7 11 9 -2 14 -10 4
-13 13 -9 23 4 11 3 15 -5 10 -13 -8 -35 28 -24 39 4 3 2 5 -5 3 -6 -2 -12 2
-14 7 -2 6 -18 24 -36 41 -18 17 -33 35 -33 38 0 12 -27 36 -40 36 -6 0 -8 5
-5 10 3 6 1 10 -6 10 -6 0 -22 11 -35 25 -13 14 -27 25 -32 25 -5 0 -22 11
-38 25 -47 41 -52 44 -58 38 -3 -4 -6 -1 -6 6 0 7 -6 11 -12 9 -7 -3 -21 5
-31 16 -10 12 -16 16 -13 9 5 -8 0 -8 -19 0 -14 7 -25 15 -25 20 0 4 -10 7
-23 7 -13 0 -27 4 -32 9 -6 5 -21 11 -35 13 -14 1 -28 6 -31 11 -3 4 -24 8
-47 10 -23 1 -42 6 -42 11 0 5 -7 3 -15 -4 -13 -11 -19 -8 -17 11 1 10 -43 5
-50 -6 -5 -7 -8 -7 -8 0 0 6 -16 10 -35 11 -21 0 -32 -3 -28 -10 4 -6 -4 -2
-17 9 -13 11 -20 14 -15 6 6 -11 1 -13 -24 -9 -17 2 -31 2 -31 -1 0 -3 -10 -7
-22 -7 -13 -1 -33 -4 -45 -7 -14 -4 -23 -1 -23 5 0 7 -7 3 -16 -8 -8 -10 -13
-13 -9 -6 9 18 -6 15 -22 -5 -8 -11 -11 -12 -7 -3 6 12 5 13 -7 4 -8 -6 -24
-10 -36 -9 -13 1 -23 -4 -23 -11 0 -7 -8 -11 -17 -10 -10 2 -21 -2 -25 -7 -3
-6 -14 -12 -22 -14 -45 -9 -51 -11 -49 -21 2 -7 -4 -9 -14 -5 -10 4 -14 2 -10
-4 5 -7 0 -9 -12 -6 -12 3 -24 -3 -33 -16 -8 -12 -18 -18 -21 -14 -4 3 -7 0
-7 -7 0 -7 -3 -11 -6 -7 -3 3 -14 -2 -24 -11 -29 -28 -63 -52 -73 -52 -4 0 -5
-4 -2 -10 3 -5 0 -10 -8 -10 -8 0 -18 -7 -21 -16 -3 -9 -11 -12 -18 -8 -7 4
-10 4 -6 0 9 -11 -23 -46 -35 -39 -6 3 -7 1 -4 -4 4 -6 -6 -23 -20 -39 -15
-16 -26 -32 -25 -36 1 -5 -3 -8 -8 -8 -6 0 -10 -7 -10 -16 0 -8 -4 -12 -10 -9
-5 3 -12 -6 -16 -20 -3 -14 -10 -25 -16 -25 -5 0 -6 -4 -3 -10 3 -5 1 -10 -4
-10 -6 0 -11 -9 -11 -20 0 -11 -3 -20 -8 -20 -4 0 -13 -9 -20 -21 -9 -14 -9
-19 -2 -14 6 4 0 -11 -14 -33 -14 -22 -22 -42 -19 -45 3 -4 -1 -13 -9 -21 -9
-8 -14 -30 -13 -50 1 -19 -2 -33 -6 -31 -4 3 -10 -2 -13 -11 -4 -10 -2 -13 7
-8 9 6 9 5 0 -7 -7 -9 -11 -25 -8 -37 2 -12 0 -22 -5 -22 -5 0 -7 -7 -4 -15 4
-8 2 -21 -3 -28 -10 -14 -10 -38 0 -54 4 -6 3 -14 -3 -18 -5 -3 -10 -11 -10
-16 0 -6 4 -8 8 -5 5 3 9 -1 9 -9 0 -8 -3 -12 -7 -10 -4 2 -6 -37 -5 -88 1
-51 3 -92 4 -92 1 0 4 -8 6 -18 2 -10 -1 -14 -7 -11 -6 4 -8 -2 -3 -16 5 -16
4 -20 -5 -15 -9 6 -9 3 -1 -12 7 -14 7 -24 -2 -33 -8 -9 -8 -11 -1 -7 15 9 27
-20 12 -29 -7 -5 -8 -2 -3 6 5 9 4 11 -4 6 -8 -5 -9 -12 -2 -19 5 -7 8 -24 6
-39 -2 -16 2 -28 8 -28 9 0 8 -3 0 -8 -7 -4 -11 -18 -8 -30 2 -12 -1 -24 -6
-27 -5 -4 -6 -11 -2 -18 3 -6 7 -25 6 -41 0 -17 5 -34 11 -38 8 -5 7 -8 -2 -8
-8 0 -11 -9 -8 -25 3 -13 0 -27 -5 -31 -5 -3 -6 -10 -2 -17 3 -6 7 -25 6 -41
0 -17 5 -34 11 -38 8 -5 7 -8 -2 -8 -8 0 -11 -9 -8 -25 3 -13 0 -27 -5 -31 -5
-3 -6 -10 -3 -16 4 -6 8 -35 8 -64 1 -52 1 -52 -17 -33 -10 11 -23 16 -29 13
-6 -4 -8 -3 -5 3 3 5 -3 15 -13 23 -10 8 -17 17 -14 22 3 4 0 8 -5 8 -6 0 -17
15 -25 34 -8 19 -24 39 -35 46 -12 6 -21 19 -21 29 0 10 -7 24 -15 31 -8 7
-12 17 -8 23 3 5 2 8 -3 5 -5 -3 -18 4 -28 15 -19 20 -19 20 0 14 15 -5 13 -2
-6 14 -14 12 -24 23 -22 25 1 2 2 10 2 17 0 8 -4 7 -10 -3 -7 -11 -8 -6 -5 18
2 21 -1 32 -9 32 -7 0 -13 6 -14 13 -2 31 -13 61 -29 80 -10 11 -13 17 -6 14
6 -4 15 -3 18 3 4 6 3 10 -2 9 -21 -4 -32 2 -27 15 3 8 0 24 -6 36 -10 18 -9
21 1 15 7 -5 6 1 -4 15 -13 18 -14 28 -5 44 10 19 10 20 -5 8 -14 -12 -16 -11
-12 7 2 12 0 21 -6 21 -5 0 -9 5 -9 11 0 5 5 7 11 3 8 -4 8 0 0 15 -7 12 -9
26 -6 31 3 6 1 10 -6 10 -8 0 -8 4 1 15 10 12 10 15 -1 15 -11 0 -11 2 1 10 9
6 10 10 3 10 -6 0 -12 8 -12 18 1 56 -5 91 -15 85 -6 -4 -5 1 3 11 13 15 13
19 0 27 -8 5 -9 9 -3 9 14 0 14 33 0 42 -8 6 -8 8 1 8 6 0 10 11 8 25 -1 14 2
25 8 25 5 0 5 6 -2 14 -9 11 -8 15 5 20 13 5 14 10 6 18 -8 8 -9 15 -1 25 7 7
7 13 2 13 -5 0 -10 7 -10 15 0 8 4 12 9 9 6 -4 11 40 7 72 0 3 7 11 17 18 12
9 14 15 6 20 -9 5 -8 15 3 36 18 35 19 43 3 35 -7 -4 -6 -1 2 7 9 7 14 21 12
32 -2 10 0 16 6 12 15 -9 22 20 9 34 -10 10 -8 12 7 6 15 -5 17 -4 7 8 -9 11
-8 15 3 19 9 4 13 15 11 27 -2 11 0 18 4 15 8 -4 22 23 25 50 3 18 17 35 26
30 4 -3 6 4 3 14 -3 13 5 28 25 46 19 17 29 34 27 46 -2 11 0 17 6 14 5 -4 9
-1 9 5 0 6 6 8 13 4 9 -6 9 -4 -1 7 -10 11 -6 19 20 43 18 17 36 29 40 28 5
-1 7 4 5 11 -1 6 4 11 12 9 12 -3 12 -1 0 14 -12 15 -12 17 0 9 11 -6 13 -4 8
8 -4 12 -1 15 14 12 11 -2 18 -1 16 3 -5 9 30 42 36 35 8 -7 29 36 23 46 -3 5
2 8 12 7 9 0 16 5 14 12 -1 8 2 11 7 8 5 -3 19 6 31 21 12 16 19 22 15 16 -3
-7 -1 -13 4 -13 6 0 11 7 11 15 0 8 7 15 15 15 8 0 15 8 15 18 0 13 8 18 28
17 16 0 26 5 25 12 -2 8 4 10 15 6 15 -6 16 -5 2 13 -8 10 -10 16 -6 12 5 -4
16 -2 24 5 13 10 14 9 8 -2 -6 -9 -4 -12 5 -9 8 3 14 10 14 15 0 6 4 15 9 20
5 5 6 3 2 -4 -4 -7 -3 -13 2 -13 6 0 13 7 16 16 3 8 10 12 16 9 5 -3 10 -2 10
4 0 5 9 8 20 6 11 -2 19 1 17 8 -1 7 6 11 15 9 9 -1 24 8 32 20 11 15 16 18
16 8 1 -13 3 -12 13 1 7 9 18 14 26 11 8 -2 11 0 8 5 -3 5 0 10 8 10 8 0 15
-5 15 -11 0 -7 3 -7 8 -1 4 6 16 17 26 25 18 13 19 13 11 0 -8 -13 -6 -13 8
-2 9 8 21 11 27 7 5 -3 10 -2 10 4 0 5 8 8 17 7 10 -2 24 3 31 11 10 10 18 11
27 3 9 -8 17 -7 26 2 16 15 28 16 46 5 6 -4 15 -2 19 4 5 8 3 9 -7 4 -8 -5
-11 -4 -6 0 11 13 49 17 42 5 -3 -5 -1 -10 4 -10 6 0 11 4 11 9 0 5 8 8 18 6
9 -1 23 2 30 8 8 6 12 6 12 -3 0 -8 4 -9 13 -3 17 13 67 15 67 2 0 -5 5 -7 10
-4 6 4 7 11 4 17 -4 7 -2 8 5 4 7 -5 23 -9 37 -11z m724 -225 c0 -5 -2 -10 -4
-10 -3 0 -8 5 -11 10 -3 6 -1 10 4 10 6 0 11 -4 11 -10z m-1696 -155 c-4 -8
-11 -12 -16 -9 -6 4 -5 10 3 15 19 12 19 11 13 -6z m1951 -65 c3 -5 1 -10 -4
-10 -6 0 -11 5 -11 10 0 6 2 10 4 10 3 0 8 -4 11 -10z m-2270 -1389 c3 -5 2
-12 -3 -15 -5 -3 -9 1 -9 9 0 17 3 19 12 6z m1995 -155 c0 -2 -8 -10 -17 -17
-16 -13 -17 -12 -4 4 13 16 21 21 21 13z m-1872 -97 c-3 -8 -7 -3 -11 10 -4
17 -3 21 5 13 5 -5 8 -16 6 -23z m52 -61 c10 -21 10 -21 -3 -6 -8 10 -18 14
-22 10 -5 -4 -5 -1 -1 6 10 17 14 15 26 -10z"/>
<path d="M460 2350 c-9 -6 -10 -10 -3 -10 6 0 15 5 18 10 8 12 4 12 -15 0z"/>
</g>
</svg>
